Coordinates
version=1
nRows=19
nColumns=34
inDegrees=yes

Units are S.I. units (second, meters, Newtons, ...)
If the header above contains a line with 'inDegrees', this indicates whether rotational values are in degrees (yes) or radians (no).

endheader
time	pelvis_tilt	pelvis_list	pelvis_rotation	pelvis_tx	pelvis_ty	pelvis_tz	hip_flexion_r	hip_adduction_r	hip_rotation_r	knee_angle_r	ankle_angle_r	subtalar_angle_r	mtp_angle_r	hip_flexion_l	hip_adduction_l	hip_rotation_l	knee_angle_l	ankle_angle_l	subtalar_angle_l	mtp_angle_l	lumbar_extension	lumbar_bending	lumbar_rotation	arm_flex_r	arm_add_r	arm_rot_r	elbow_flex_r	pro_sup_r	arm_flex_l	arm_add_l	arm_rot_l	elbow_flex_l	pro_sup_l
      3.46666670	    -23.03480634	     -3.31599365	      2.70213877	      0.55495139	      0.39707712	     -0.02308385	    116.69348796	    -15.10441555	      4.03901832	    122.92569683	     33.26702784	    -10.22832592	      0.00000000	    119.99999986	    -10.02587042	      9.34223254	    124.19218682	     32.24842019	     -0.25648973	      0.00000000	    -41.38145717	      3.91185484	      1.03692509	    134.99375809	     -4.19202936	     34.07378166	     18.94588717	     56.90706486	    129.14201708	     -1.32851061	     33.98450183	     17.11895595	     45.57188770
      3.48333330	    -22.21726739	     -3.34369909	      2.98971418	      0.55651407	      0.39167981	     -0.02299265	    116.80803620	    -15.53890180	      4.42276281	    124.17126217	     33.63173932	    -10.04358962	      0.00000000	    119.99999986	    -10.01724993	      9.63168837	    125.21694779	     32.69728316	      0.56543430	      0.00000000	    -42.30487445	      4.01785574	      0.62930725	    135.25064403	     -4.02607868	     34.18526234	     19.12096304	     56.66485704	    129.47069388	     -1.40995698	     34.37808706	     17.04233304	     45.26338867
      3.50000000	    -21.35486099	     -3.29452366	      3.16259513	      0.56014069	      0.38492526	     -0.02307315	    116.85217452	    -15.89643054	      4.91557945	    125.57344222	     34.39256757	     -9.35032500	      0.00000000	    119.99999986	    -10.13903183	      9.91839664	    126.38697189	     33.17913849	      1.11184113	      0.00000000	    -43.05467799	      3.93053575	      0.32285296	    135.18061259	     -4.02209133	     34.22205942	     18.97422363	     56.40611503	    129.38657258	     -1.24319122	     34.79392405	     16.95554547	     44.95437970
      3.51666670	    -20.39034909	     -3.03234855	      3.19036968	      0.56410942	      0.37753965	     -0.02413127	    117.01429181	    -16.12989679	      5.83710783	    127.18105710	     35.03087725	     -8.85205659	      0.00000000	    119.99999986	    -10.36825248	     10.05658125	    127.70180711	     33.95378920	      1.31323933	      0.00000000	    -43.81841378	      3.65335853	      0.16796969	    135.12470291	     -4.04718601	     34.20733451	     18.80414206	     56.25953303	    129.16436062	     -0.96680095	     34.99473479	     17.01524579	     44.77895789
      3.53333330	    -19.51981609	     -2.72137195	      3.18395443	      0.56648137	      0.37224223	     -0.02256082	    117.30103943	    -16.30202343	      6.84784644	    128.72881755	     35.81773084	     -7.60888799	      0.00000000	    119.99999986	    -10.74298647	     10.19520299	    128.84459481	     34.42105514	      1.90607703	      0.00000000	    -44.38523967	      3.26819304	     -0.16600191	    134.73629704	     -3.99247285	     34.14198648	     18.60682410	     55.98310438	    128.81696933	     -0.80732429	     35.23511462	     17.08876261	     44.43060466
      3.55000000	    -18.85662185	     -2.48448295	      3.15705632	      0.57063264	      0.36761391	     -0.02369823	    117.66017759	    -16.45110411	      7.77604014	    130.10753190	     36.26527471	     -6.93556601	      0.00000000	    119.99999986	    -11.10730709	     10.39202825	    130.04312482	     35.20081486	      2.28119459	      0.00000000	    -44.51253826	      3.05070391	     -0.25097742	    133.95356470	     -3.95842062	     34.11796504	     18.45598436	     55.83070777	    127.80735663	     -0.55995450	     35.35672969	     17.22978312	     44.22529567
      3.56666670	    -18.34318085	     -2.07167232	      3.03654938	      0.57201660	      0.36153968	     -0.02195516	    118.25303885	    -16.30045706	      8.76427953	    131.34482860	     36.64961549	     -6.03316216	      0.00000000	    119.99999986	    -11.63492239	     10.53579567	    131.21517038	     35.89003565	      2.79854045	      0.00000000	    -44.61391378	      2.54248394	     -0.54333292	    133.34564196	     -3.86061043	     34.01133782	     18.40379980	     55.65561404	    127.12314359	     -0.45794010	     35.32173894	     17.58301112	     43.98410257
      3.58333330	    -17.68312479	     -1.72660271	      3.12076453	      0.56788596	      0.35471496	     -0.01906950	    118.86027048	    -16.14586207	      9.60207381	    132.40467986	     37.06397503	     -5.39487896	      0.00000000	    119.99999986	    -11.88002698	     10.71415766	    132.20401248	     36.27636647	      3.37119285	      0.00000000	    -45.00899263	      2.16741947	     -1.15476713	    132.94177298	     -3.55911055	     33.56395773	     18.42494512	     55.23130572	    126.84223740	     -0.61900430	     34.98156015	     18.16358434	     43.45587405
      3.60000000	    -17.03746209	     -1.42760836	      3.02344985	      0.56957519	      0.34990982	     -0.01884296	    119.27988055	    -15.73442671	     10.23221621	    133.45948456	     37.17522224	     -5.25033318	      0.00000000	    119.99999986	    -12.22946190	     11.20062869	    133.21269529	     36.30598539	      3.47697779	      0.00000000	    -45.49125166	      1.82201787	     -1.29190639	    132.84593036	     -3.42002190	     33.42451253	     18.39250918	     55.09801111	    126.77968304	     -0.60833109	     34.85371503	     18.22784169	     43.29585491
      3.61666670	    -16.43376405	     -1.12274279	      2.93259667	      0.56794990	      0.34815691	     -0.01838541	    119.45604356	    -15.26077067	     10.71288073	    134.11431667	     37.14398021	     -5.35131025	      0.00000000	    119.99999986	    -12.51524429	     11.33589703	    133.73763639	     36.19028978	      3.74048019	      0.00000000	    -46.00409926	      1.41203626	     -1.49358268	    132.70406157	     -3.35530904	     33.27268359	     18.26194272	     54.95188279	    126.68374249	     -0.46443496	     34.72826834	     18.24034974	     43.13470621
      3.63333330	    -15.85566389	     -1.01819293	      2.95203264	      0.57272076	      0.34549678	     -0.01860303	    119.57133988	    -15.11445663	     11.27337290	    134.81156288	     37.17157576	     -5.38583293	      0.00000000	    119.99999986	    -12.56967538	     11.71596426	    134.40682102	     36.20678455	      3.80377420	      0.00000000	    -46.40973848	      1.36524177	     -1.55771770	    132.49612537	     -3.29341107	     33.25051517	     18.21694961	     54.91702392	    126.43923183	     -0.38923354	     34.71648373	     18.21442170	     43.09748187
      3.65000000	    -15.25471668	     -0.75861887	      3.04069700	      0.56812211	      0.33917176	     -0.01652230	    119.70822540	    -14.87086816	     11.71725328	    135.27522438	     37.18238928	     -5.41725110	      0.00000000	    119.99999986	    -12.67955388	     11.97359824	    135.04224941	     36.58179689	      4.93418971	      0.00000000	    -46.93076445	      1.06855053	     -1.93590125	    132.73715973	     -3.12544928	     32.82038468	     17.77512895	     54.51658541	    126.82267432	     -0.18059624	     34.44344822	     17.87366479	     42.72462891
      3.66666670	    -14.67342632	     -0.80325267	      3.32874915	      0.57350200	      0.33893852	     -0.01673014	    119.73483383	    -14.95932081	     12.13960415	    136.01472285	     37.07406244	     -5.64336711	      0.00000000	    119.99999986	    -12.50630070	     12.47248617	    135.67291717	     36.29954901	      5.22880325	      0.00000000	    -47.28194637	      1.24699095	     -2.07478749	    132.63884898	     -3.21028784	     32.72463278	     17.59003024	     54.39618510	    126.70810046	     -0.09806402	     34.42813229	     17.75628216	     42.61841878
      3.68333330	    -14.56947970	     -0.78330565	      3.49275668	      0.57792131	      0.33943538	     -0.01776889	    119.87358739	    -14.97223023	     12.57647575	    136.50552036	     36.93469315	     -5.99333332	      0.00000000	    119.99999986	    -12.50697752	     12.75875699	    136.14531132	     36.83837584	      5.91640753	      0.00000000	    -47.13346688	      1.38434978	     -2.00798887	    132.68677565	     -3.20414856	     32.56361748	     17.19933513	     54.15803881	    126.53433425	      0.06357747	     34.38831197	     17.40965581	     42.40214402
      3.70000000	    -14.42826217	     -0.80590003	      3.47262198	      0.57820355	      0.33785813	     -0.01927016	    119.89552673	    -15.01407324	     12.85129449	    136.80931041	     36.63461550	     -5.94159993	      0.00000000	    119.99999986	    -12.45024341	     12.92623218	    136.53993709	     37.04633963	      6.04543790	      0.00000000	    -47.01322473	      1.43837788	     -1.96539714	    132.64384385	     -3.23062108	     32.48781023	     16.94040182	     54.00258014	    126.44460669	      0.17629710	     34.37236159	     17.19949413	     42.25712061
      3.71666670	    -14.41363605	     -0.93290804	      3.56103315	      0.58083751	      0.33819386	     -0.01948131	    119.87993393	    -15.23923598	     13.03567101	    137.04616830	     36.62003547	     -6.01202442	      0.00000000	    119.99999986	    -12.23943884	     13.15480835	    136.82128164	     37.24311724	      6.11968689	      0.00000000	    -46.66603084	      1.68248763	     -1.87223652	    132.39155888	     -3.24763399	     32.45107350	     16.78411223	     53.87429850	    126.16861094	      0.22257277	     34.34999553	     17.00642065	     42.12882524
      3.73333330	    -14.65258097	     -0.99152187	      3.47273203	      0.58316221	      0.34025583	     -0.01998097	    119.83864894	    -15.30971677	     13.02723971	    137.07128045	     36.52383263	     -6.02439283	      0.00000000	    119.99999986	    -12.17428908	     13.24935280	    136.96266132	     37.51519064	      6.09997642	      0.00000000	    -46.00649566	      1.84771057	     -1.60277175	    132.13645489	     -3.21374553	     32.42124629	     16.69563992	     53.76356191	    125.71372463	      0.23499614	     34.31391829	     16.83183805	     42.01285488
      3.75000000	    -14.69670001	     -1.02017393	      3.24097521	      0.58138881	      0.33964811	     -0.01974676	    119.68372094	    -15.25799580	     12.74820558	    136.95929824	     36.40530555	     -6.08409280	      0.00000000	    119.99999986	    -12.12801681	     13.27902482	    137.04245984	     37.37808741	      5.76859931	      0.00000000	    -45.54472326	      1.86109067	     -1.37816068	    132.00228403	     -3.11845793	     32.38606963	     16.65642438	     53.64856600	    125.51542248	      0.21688974	     34.24163360	     16.73261331	     41.88409046
      3.76666670	    -15.31003763	     -1.07144859	      2.77698353	      0.57853089	      0.34856907	     -0.01996936	    119.43390424	    -14.91038125	     11.94243313	    135.92296622	     36.21313069	     -6.23937954	      0.00000000	    119.99999986	    -12.19896892	     13.02943537	    136.36256687	     36.62926327	      4.57555744	      0.00000000	    -44.92305461	      1.77545365	     -1.09260867	    132.17834672	     -2.91503550	     32.21625610	     16.71340197	     53.29146555	    125.78709061	      0.07412779	     33.99338570	     16.66496027	     41.48792448
